<svg xmlns="http://www.w3.org/2000/svg"><defs><font horiz-adv-x="999"><font-face units-per-em="2048" ascent="1536" descent="-512"/><glyph horiz-adv-x="0"/><glyph horiz-adv-x="448"/><glyph horiz-adv-x="448"/><glyph horiz-adv-x="448"/><glyph horiz-adv-x="448"/><glyph unicode="!" horiz-adv-x="423" d="M135 68q0 92 82 92t82-92q0-90-82-91h-2q-84 0-80 91zm19 1312h120l-20-1018h-80z"/><glyph unicode=""" horiz-adv-x="616" d="M123 1417h117l-25-452h-65zm252 0h117l-25-452h-66z"/><glyph unicode="#" horiz-adv-x="917" d="M49 434v74l4 2h498l41 342h-232q-29-244-30-244h-82l-4 4 30 240h-180l-2 4v76l2 2h191l55 416v2h82l2-4-51-414h231l55 416v2h80l2-4-49-414h168l4-2v-76l-4-4h-180l-43-342h180l4-2v-74l-4-4h-188q-4 0-13-88l-45-340h-82l-2 2 54 426h-230q-4 0-16-119l-41-309h-84l-2 2 53 426h-168z"/><glyph unicode="$" d="M147 131l43 76q109-88 263-88 123 0 198 71 76 68 76 175 0 176-240 282-164 72-235 144-84 82-84 200 0 268 285 309v213h84v-210q80-2 145-25 55-20 100-51l-43-76q-16 12-34 23-25 14-52 22-72 27-149 27-121 0-187-70-57-61-57-145 0-154 258-269 154-70 223-149 80-90 80-217 0-121-76-211-82-98-223-121v-213h-84v211q-174 0-291 92z"/><glyph unicode="%" horiz-adv-x="1542" d="M84 956v13q0 254 156 368 65 41 141 41 59 0 108-24l-36-66q-43 18-78 19h-8q-127 0-181-205-12-66-12-125v-41q0-182 102-279 43-33 93-32h6q145 0 186 225 8 59 8 119 0 147-47 245l45 80q92-106 92-317 0-303-182-402-51-25-110-24-154 0-238 170-45 102-45 235zm254-974l803 1398 2 2h76l2-2h2l-805-1400h-80v2zm567 421q0 262 158 377 63 41 137 41h4q186 0 254-221 23-80 23-160v-45q0-190-99-313-84-88-180-88h-20q-53 0-109 29v4l39 63q39-25 82-24 147 0 188 223 6 35 9 123-4 260-127 323-39 14-70 15-133 0-184-205-14-63-15-150 0-127 47-227-31-57-45-78-92 115-92 313z"/><glyph unicode="&" horiz-adv-x="1171" d="M33 362v17q0 240 274 405v4q-119 164-119 295v17q0 158 125 262 87 59 150 59l2-2v-73q0-4-43-13-68-25-107-92-33-66-32-139 0-137 114-281 127 63 211 148 70 76 70 166 0 117-84 178l-33 18v84l2 2v2q88-23 137-76 72-82 72-194v-6q0-211-268-348-14-10-58-31v-4q150-178 406-467h2q41 66 70 143 35 100 55 205 16 98 20 98h93q-29-172-66-280-35-100-80-172l-37-56q106-106 219-227v-2h-122q-186 199-547 598l-105 119h-2q-219-133-219-340 0-162 127-260 86-57 178-58h25q135 0 262 93l51-54v-4q-154-117-338-116h-18q-197 0-322 167-66 102-65 215z"/><glyph unicode="'" horiz-adv-x="364" d="M123 1417h117l-25-452h-65z"/><glyph unicode="(" horiz-adv-x="542" d="M137 584q0 145 25 278 23 119 67 228 37 96 93 186 45 76 104 151h92q-137-170-207-360-80-217-80-485 0-258 82-476 37-96 90-190 49-82 115-168h-92q-59 74-104 148-55 90-93 184-45 109-67 227-25 131-25 277z"/><glyph unicode=")" horiz-adv-x="542" d="M25-252q66 84 114 168 53 94 90 193 82 219 82 481 0 260-82 477-35 98-90 193-49 84-114 167h92q59-74 104-147 55-90 92-186 45-109 68-228 25-133 25-278t-25-277q-23-119-68-227-37-94-92-186-45-74-104-150h-92z"/><glyph unicode="*" horiz-adv-x="800" d="M61 1026v96l289-22v4l-176 246 90 51 133-266h4l129 268 91-51-181-250v-4l299 24v-96l-297 25v-4l181-244-95-53-129 270h-4l-141-272-80 55 178 246v4z"/><glyph unicode="+" horiz-adv-x="1220" d="M84 506v82h483v502h88v-502h484v-82h-484v-506h-88v506h-483z"/><glyph unicode="," horiz-adv-x="356" d="M53-258q70 184 107 434l129 21q-70-291-158-445z"/><glyph unicode="-" horiz-adv-x="610" d="M61 520v86h488v-86h-488z"/><glyph unicode="." horiz-adv-x="356" d="M115 70q0 92 84 92 82 0 82-92t-84-93h-2q-84 0-80 93z"/><glyph unicode="/" horiz-adv-x="718" d="M-23-82l652 1485h100l-657-1485h-95z"/><glyph unicode="0" horiz-adv-x="995" d="M86 688v17q0 403 209 598 82 63 151 75 0 2 33 6h2v-79q0-2-45-13-86-35-149-141-98-176-99-479 0-311 125-490 84-104 199-104 233 0 303 358 20 117 21 254v19q0 408-168 544-33 27-84 43-6 0-6 4v82l4 2q57-4 135-49 225-160 225-626 0-502-242-660-88-55-192-55h-16q-195 0-318 233-88 193-88 461z"/><glyph unicode="1" d="M238 1182l251 149h91v-1331h-97v1231h-4l-217-127z"/><glyph unicode="2" d="M94 0v59l123 127q152 150 240 242 104 113 166 199 127 178 127 340 0 131-60 207-74 94-229 94-86 0-168-39-59-29-115-76l-39 68q147 133 340 133 188 0 289-125 82-100 82-242 0-182-137-377-61-86-164-198-45-49-105-109l-213-217v-4h656v-82h-793z"/><glyph unicode="3" d="M92 68l39 77q43-31 113-55 88-29 174-29 182 0 270 109 68 84 66 199-2 156-123 239-104 74-269 74h-83v82h88q127 0 223 65 111 76 110 203 0 102-57 166-70 72-201 72-72 0-145-29-61-25-113-63l-39 71q53 43 131 72 90 33 179 33 176 0 268-99 80-84 80-211 0-219-248-315v-4q131-27 213-117 88-96 88-235 0-162-111-273-123-123-339-123-94 0-187 29-78 25-127 62z"/><glyph unicode="4" horiz-adv-x="1024" d="M2 389v66l660 884h75l4-4v-766l-4-2h-86l-4 2v633h-2q-61-100-250-354l-274-377h821l4-4v-78l-4-2h-201v-393l-4-4h-90l-2 4v393h-639z"/><glyph unicode="5" d="M86 63l39 78q47-33 111-53 80-27 163-27 145 0 246 97 100 98 98 248-2 152-94 241-100 96-291 96-109 0-190-14l86 602h577v-86h-501l-66-428q51 10 123 10 133 0 248-57 86-43 143-127 63-96 64-219 0-197-131-324-129-123-318-123-96 0-184 27-76 25-123 59z"/><glyph unicode="6" horiz-adv-x="1011" d="M80 535v26q0 289 153 518 125 178 355 258 133 37 217 37h4l4-4v-84q0-4-76-12-106-20-159-45-211-86-320-307-76-172-76-359 0-256 131-405 90-94 209-95h6q170 0 260 166 47 96 48 211 0 242-181 328-66 29-143 29-125 0-231-92v2q0 23 34 114 100 61 215 62h13q217 0 336-187 59-111 59-227v-37q0-158-100-299-127-154-312-153h-16q-170 0-295 135-135 160-135 420z"/><glyph unicode="7" d="M127 1249v82h778v-69l-600-1262h-96l594 1245v4h-676z"/><glyph unicode="8" horiz-adv-x="1028" d="M96 340v12q0 188 178 312 35-16 80-31v-2q-41-31-73-64-82-86-82-219 0-145 139-235 82-43 174-43h10q195 0 285 151 31 61 31 133 0 205-244 295-53 23-170 58-76 29-135 69-139 106-139 248v20q0 164 155 275 88 51 166 57h2v-78q0-4-37-10-102-31-145-98-43-63-43-135v-17q0-207 297-276 246 86 246 287 0 164-150 231-41 12-70 16v80l4 2q72 0 173-53 147-102 147-268 0-213-240-324v-6l54-25q233-121 233-333 0-217-217-336-100-47-199-47h-22q-172 0-305 116-102 104-103 238z"/><glyph unicode="9" horiz-adv-x="1013" d="M92 915v19q0 209 148 358 114 103 266 103h16q201 0 332-185 96-158 96-358v-45q0-299-174-539-68-80-123-123-88-61-170-92-152-53-258-53h-4l-2 4v84q0 4 74 12 106 20 160 45 211 86 315 301 82 170 82 367 0 283-160 432-86 66-180 66h-4q-203 0-287-215-23-80-22-146v-30q0-186 129-285 84-57 192-57 121 0 225 88l2 2 7 2v-2q-4-33-39-115-100-61-215-61h-9q-213 0-329 178-68 111-68 245z"/><glyph unicode=":" horiz-adv-x="356" d="M115 70q0 92 84 92 82 0 82-92t-84-93h-2q-84 0-80 93zm0 761q0 92 84 93 82 0 82-93 0-92-84-92h-2q-84 0-80 92z"/><glyph unicode=";" horiz-adv-x="356" d="M53-256q70 184 107 434l127 21q-66-285-156-445zm76 1087q0 92 84 93 82 0 82-93 0-92-84-92h-2q-84 0-80 92z"/><glyph unicode="<" horiz-adv-x="1220" d="M145 508v72l930 507v-94l-835-448v-4l835-447v-94z"/><glyph unicode="=" horiz-adv-x="1220" d="M82 317v82h1057v-82h-1057zm0 390v81h1057v-81h-1057z"/><glyph unicode=">" horiz-adv-x="1220" d="M145 0v94l836 447v4l-836 448v94l930-507v-72z"/><glyph unicode="?" horiz-adv-x="780" d="M106 1323q104 82 265 82 150 0 235-90 74-80 74-201 0-90-47-178-37-74-129-184-137-168-123-332l4-62h-90l-8 54q-27 180 131 374 158 184 157 322 0 209-223 209-129 0-207-66zm148-1253q0 92 84 92 82 0 82-92t-84-93h-2q-84 0-80 93z"/><glyph unicode="@" horiz-adv-x="1529" d="M96 432v21q0 313 203 555 224 235 535 235h18q307 0 483-248 94-160 95-329v-43q0-229-144-385-66-55-112-70-49-18-97-18-106 0-141 131-6 35-6 67v25q0 61 55 329l21 105h-2q-47 18-117 18h-8q-182 0-310-176-76-117-75-250 0-117 98-161 31-10 57-11h8q74 0 150 68h4v-2q-18-98-23-98-74-45-167-45-115 0-185 116-33 61-33 140 0 205 160 364 150 135 332 135 113 0 209-39l-82-420q-8-53-8-88 0-129 90-129 104 0 184 158 49 109 49 242 0 328-243 475-121 63-265 63-274 0-467-211-172-207-172-507 0-295 213-467 143-104 314-105h16q172 0 309 78h7l26-72q-154-88-354-88h-10q-281 0-471 217-143 182-144 420z"/><glyph unicode="A" horiz-adv-x="1110" d="M-2 4l506 1397h94q4 0 43-119l463-1280-2-2h-98q-4 0-80 221l-99 271h-448q29 82 33 81h383l-111 328q-76 213-131 385-4 0-23-63-209-606-428-1223h-98z"/><glyph unicode="B" horiz-adv-x="931" d="M100 10v1374q0 6 115 23 84 10 154 10h28q317 0 414-207 25-70 25-137 0-156-146-264-43-31-94-47v-6q131-35 207-119 88-100 88-242 0-186-148-303-141-94-376-94h-66l-2 4v76l2 4h80q283 0 377 174 28 61 28 136v5q0 219-239 293-80 20-164 21h-82l-2 4v73l2 5h96q231 0 316 172 20 53 20 102 0 193-192 246-70 20-160 20h-16q-109 0-164-14v-1315l-2-2h-6q-92 4-93 8z"/><glyph unicode="C" horiz-adv-x="1167" d="M76 682q0 313 186 514 193 205 514 205 117 0 211-23 35-8 66-18 25-8 43-19l-31-81q-119 59-287 59-281 0-440-170-160-172-160-469 0-285 154-449 156-168 430-168 180 0 311 64l29-78q-59-29-150-47-100-22-213-22h-10q-274 0-453 167-94 90-145 220-55 139-55 315z"/><glyph unicode="D" horiz-adv-x="1392" d="M201 6v1372q0 4 98 17 121 16 244 16h30q403 0 590-235 135-172 135-435v-10q0-362-227-569-211-170-536-170h-134l-4 4v78l2 2v2l68-2h72q362 0 538 233 119 164 119 428 0 399-319 535-135 55-322 55h-6q-137 0-248-22v-1307h-2v-2q-98 4-98 10z"/><glyph unicode="E" horiz-adv-x="954" d="M166 0v1380h682v-82h-584v-530h551v-82h-551v-604h617v-82h-715z"/><glyph unicode="F" horiz-adv-x="946" d="M166 0v1380h682v-82h-584v-548h537v-82h-537v-668h-98z"/><glyph unicode="G" horiz-adv-x="1277" d="M76 686q0 301 184 498 199 211 537 211 100 0 196-21 78-16 125-41l-33-80q-57 29-124 43-76 16-170 17-283 0-449-170-164-170-164-453 0-291 160-457 157-165 429-165h3q201 0 289 49v487h-320v80h418v-625q-70-29-158-47-117-26-236-26h-9q-145 0-260 39-127 45-228 141-190 184-190 520z"/><glyph unicode="H" horiz-adv-x="1290" d="M166 0v1380h98v-608h762v608h98v-1380h-98v690h-762v-690h-98z"/><glyph unicode="I" horiz-adv-x="432" d="M166 0v1380h98v-1380h-98z"/><glyph unicode="J" horiz-adv-x="706" d="M14 10l21 78q66-27 145-27 141 0 205 78 72 90 72 310v931h98v-954q0-244-113-356-92-92-260-93-98 0-168 33z"/><glyph unicode="K" horiz-adv-x="1019" d="M166 0v1380h98v-698h6q27 35 62 76l547 622h118l-524-585 574-795h-117l-524 727-142-156v-571h-98z"/><glyph unicode="L" horiz-adv-x="917" d="M166 0v1380h98v-1298h615v-82h-713z"/><glyph unicode="M" horiz-adv-x="1593" d="M129 0l100 1380h113l297-796q94-250 152-447h6q25 86 63 201l90 246 310 796h116l92-1380h-96l-51 815q-6 96-8 166-10 186-10 285h-5l-81-236q-51-141-105-280l-291-750h-67l-328 887-47 137q-47 139-76 242h-4l-10-291q-8-178-21-340l-43-635h-96z"/><glyph unicode="N" horiz-adv-x="1306" d="M168 0v1380h92l537-815q90-139 147-231 66-109 113-203l4 2q-10 129-14 268 0 63-3 140v839h95v-1380h-90l-603 920-69 112q-76 121-123 217l-4-2q8-121 10-252 2-113 2-297v-698h-94z"/><glyph unicode="O" horiz-adv-x="1339" d="M51 676q0 338 178 541 162 182 410 196v-84q-225-14-358-205-125-180-125-442 0-248 125-428 143-205 389-205 252 0 393 203 127 180 127 448 0 236-117 412-127 188-336 215v84q244-20 398-209 159-194 159-493 0-342-184-547-176-197-446-197-268 0-439 193-174 197-174 518z"/><glyph unicode="P" horiz-adv-x="1024" d="M201 0v1376q0 8 172 25 44 4 114 4h27q311 0 426-209 39-82 39-176v-10q0-305-307-406-102-29-203-29l-29 3h-39l-4 4v77l2 3v2l52-2h41q240 0 344 159 43 80 43 183 0 221-209 292-76 25-170 25h-6q-111 0-193-16v-1305l-4-4h-92z"/><glyph unicode="Q" horiz-adv-x="1351" d="M66 684v25q0 377 247 594 168 131 373 131h21q260 0 438-205 160-203 160-492v-24q0-346-203-549-55-49-103-78l-118 29q168 78 256 278 63 154 63 309v35q0 190-102 377-150 238-406 238h-4q-289 0-438-283-80-170-80-354v-31q0-244 152-440 86-92 141-115 45-27 115-45 80-10 145-31 209-57 594-131l2-2q-31-90-33-90-248 57-581 158-104 6-156 18-86 23-141 51-201 98-297 344-45 137-45 283z"/><glyph unicode="R" horiz-adv-x="1103" d="M207 2v1374q0 6 98 19l2-2v-672h211q264 0 348 192 18 57 19 115 0 207-201 275-77 22-155 22h-40l-81-2h-2v78q0 6 94 6h22q350 0 441-231 22-65 22-124v-16q0-242-244-348l-30-12v-2q100-35 155-129 35-63 58-148 57-281 106-399h-98q-12 0-51 154-41 193-64 272-51 137-145 182-74 33-154 33h-211v-637l-4-4h-92z"/><glyph unicode="S" horiz-adv-x="950" d="M86 72l37 80q131-90 301-91 334 0 334 287 0 215-281 322-174 63-260 151-94 94-94 230 0 152 113 252 113 98 288 98 90 0 168-21 66-16 107-43l-37-84q-35 25-90 43-74 23-154 23-152 0-233-86-66-70-66-166 0-195 287-307 180-74 260-158 88-96 88-244 0-160-109-264-118-114-325-114h-4q-205 0-330 92z"/><glyph unicode="T" horiz-adv-x="952" d="M-23 1298v82h1000v-82h-451v-1298h-98v1298h-451z"/><glyph unicode="U" horiz-adv-x="1282" d="M166 541v839h98v-833q0-250 107-375 96-113 260-113 180 0 280 117 106 125 107 371v833h98v-825q0-299-147-449-127-129-342-129-203 0-322 123-139 143-139 441z"/><glyph unicode="V" horiz-adv-x="1042" d="M0 1380h102l291-884q27-78 43-138 45-143 72-245h6q29 106 76 249l49 136q20 61 51 143l268 739h105l-512-1380h-92z"/><glyph unicode="W" horiz-adv-x="1679" d="M31 1380h100l264-1032q35-135 51-219h5q14 88 51 217 14 55 35 125 16 49 41 131l225 778h94l270-1022q33-135 47-229h5q20 96 55 227l69 248 228 776h100l-414-1380h-94l-207 795q-84 307-106 467h-4q-16-90-47-205-25-96-76-260l-236-797h-92z"/><glyph unicode="X" horiz-adv-x="1118" d="M61 0l439 698-420 682h110l224-368q88-139 141-238h4q27 51 68 113l309 493h115l-441-671 445-709h-113l-209 340q-115 172-182 287h-4q-20-39-35-60-18-35-37-65-45-74-102-164l-199-338h-113z"/><glyph unicode="Y" horiz-adv-x="1030" d="M31 1380h108l310-563q43-80 75-145h4q27 59 72 143 16 27 43 76l281 489h108l-465-784v-596h-98v598z"/><glyph unicode="Z" horiz-adv-x="1103" d="M70 0v63l831 1229v6h-764v82h889v-65l-833-1227v-6h843v-82h-966z"/><glyph unicode="[" horiz-adv-x="542" d="M184-229v1634h351v-76h-261v-1483h261v-75h-351z"/><glyph unicode="\" horiz-adv-x="712" d="M-10 1403h98l647-1485h-98z"/><glyph unicode="]" horiz-adv-x="542" d="M12-154h258v1483h-258v76h348v-1634h-348v75z"/><glyph unicode="^" horiz-adv-x="1220" d="M147 401l420 930h88l420-930h-94l-367 836h-4l-368-836h-95z"/><glyph unicode="_" horiz-adv-x="1024" d="M0-154h1024v-102h-1024v102z"/><glyph unicode="`" horiz-adv-x="614" d="M68 1409h143l182-283h-76z"/><glyph unicode="a" horiz-adv-x="899" d="M74 244v16q0 186 196 287 115 47 152 47 96 18 160 18h2v-77l-4-5q-152 0-285-63-117-72-117-191v-18q0-125 107-178 45-20 92-21 174 0 266 144 39 59 39 123v299q0 244-147 293-47 16-103 16h-6q-141 0-250-74-4 0-33 72 133 86 287 86h19q221 0 301-193 32-85 32-190v-399q0-152 15-236l-2-2h-86q-6 0-9 51l-10 92h-6q-57-82-119-110-86-55-200-56-205 0-279 185-12 47-12 84z"/><glyph unicode="b" horiz-adv-x="1130" d="M203 4q8 102 8 262v1209l4 2h92l4-2v-664h4q63 131 205 184 78 27 160 27 236 0 362-227 63-129 64-279v-10q0-313-227-465-109-63-215-64-162 0-271 93l4 98h2q109-104 238-105h18q193 0 297 189 53 115 54 256 0 193-111 323-98 106-240 107-145 0-258-125-47-59-65-117-23-37-23-211 0-158-16-483l-2-2h-84z"/><glyph unicode="c" horiz-adv-x="913" d="M84 481q0 233 143 379 141 145 363 146 84 0 160-21 66-18 98-41l-35-80q-41 25-92 39-63 18-139 19-190 0-299-129-100-119-101-304 0-193 109-309 109-117 280-117 78 0 148 21 27 6 53 18l25 9 20 10 27-78q-10-4-19-8-12-6-24-10-31-12-64-21-85-24-175-24h-7q-211 0-342 141-129 137-129 360z"/><glyph unicode="d" horiz-adv-x="1126" d="M100 473v27q0 238 146 397 131 129 303 129 207 0 317-160l8-18h5v631l4 2h92l4-2v-1254q0-125 8-219l-2-2h-86v2h-2l-10 387-13 256q0 68-57 158-104 135-262 135-201 0-303-199-51-109-51-247 0-246 157-373 86-55 183-55h14q131 0 238 110h2v-57l2-43q-113-96-267-96-221 0-354 202-76 135-76 289z"/><glyph unicode="e" horiz-adv-x="978" d="M86 467v25q0 238 139 395 127 131 299 131h19q248 0 344-248 37-102 37-209-2-53-9-53h-628l-4 2v10q2 68 10 68h526v2q0 166-92 266-78 78-205 78-207 0-301-223-37-102-37-205v-31q0-203 135-328 99-81 235-81h21q154 0 263 55 4-2 26-78-123-66-315-66-240 0-375 187-88 133-88 303z"/><glyph unicode="f" horiz-adv-x="536" d="M31 903v80h141v53q0 246 109 355 88 86 219 86 90 0 147-35l-31-74q-25 12-51 18-33 8-73 9-127 0-181-107-41-86-41-250v-55h262v-80h-262v-903h-98v903h-141z"/><glyph unicode="g" horiz-adv-x="1110" d="M82 479v19q0 246 158 401 130 119 282 119h19q211 0 317-176 4-10 10-15h2q4 168 9 168h86l2-2h2q-8-92-8-233v-604q0-326-113-447-63-68-121-90-109-55-242-55-186 0-317 86v4q33 78 35 78 131-82 280-82h6l9-2 10 2h10q172 0 270 125 41 59 60 147 12 63 12 178v484q0 125-35 172-96 178-288 178-201 0-304-193-51-104-51-245 0-219 140-342 90-72 213-72t225 94h2v-96q-100-82-254-82-182 0-307 145-119 145-119 336z"/><glyph unicode="h" horiz-adv-x="1097" d="M166 0v1456h98v-649h4q45 88 133 141 94 57 199 58 45 0 92-13 63-18 113-57 63-47 96-125 41-90 41-219v-592h-98v582q0 147-60 235-70 102-211 103-219 0-297-222-12-37-12-98v-600h-98z"/><glyph unicode="i" horiz-adv-x="428" d="M135 1264q0 86 80 86 78 0 78-86 0-84-80-84h-2q-76 0-76 84zm31-1264v983h98v-983h-98z"/><glyph unicode="j" horiz-adv-x="438" d="M-100-348q139 6 204 82 41 49 56 125 18 88 18 274v850h98v-915q0-274-104-390-49-53-131-81-66-23-127-25zm247 1612q0 86 82 86 76 0 76-86 0-84-80-84h-2q-76 0-76 84z"/><glyph unicode="k" horiz-adv-x="866" d="M164 0v1456h98v-946h4q43 55 94 108l349 365h118l-397-408 453-575h-119l-402 516-100-106v-410h-98z"/><glyph unicode="l" horiz-adv-x="434" d="M166 0v1456h98v-1456h-98z"/><glyph unicode="m" horiz-adv-x="1654" d="M158 983h92l6-172h4q51 92 123 139 82 55 197 56 209 0 282-213h4q37 80 101 133 98 80 233 80 45 0 90-15 61-18 107-59 57-49 88-129 37-92 37-223v-580h-99v571q0 352-256 353-88 0-159-60-68-53-99-135l-10-45q-6-29-6-53v-631h-98v616q0 137-62 220-66 88-182 88-94 0-172-68-72-61-100-154-14-49-15-96v-606h-98v748q0 131-8 235z"/><glyph unicode="n" horiz-adv-x="1097" d="M158 983h92l6-176h4q96 199 338 199 47 0 94-13 63-18 113-57 63-49 96-125 41-92 41-221v-590h-98v582q0 150-60 239-72 102-213 103-227 0-295-228-12-45-12-86v-610h-98v748q0 131-8 235z"/><glyph unicode="o" horiz-adv-x="1116" d="M74 477q0 233 131 377 113 123 282 143v-82q-137-23-225-141-90-121-90-293 0-160 84-282 98-145 276-146 178 0 279 137 88 123 88 297 0 170-90 291-88 119-225 137v84q180-14 295-149 118-140 118-352 0-247-141-392-131-135-326-135-203 0-329 140-127 141-127 366z"/><glyph unicode="p" horiz-adv-x="1150" d="M199 1012h94l2-2 6-187h4q61 127 219 191 77 22 138 22h22q199 0 328-180 90-137 90-319v-9q0-348-256-491-94-43-199-43-137 0-241 76v102h2q102-94 237-94 215 0 311 211 45 109 45 239 0 190-110 320-98 104-238 104h-6q-152 0-264-135-53-66-74-182-2-14-2-37v-989l-4-4h-92l-4 4v1055q0 213-8 348z"/><glyph unicode="q" horiz-adv-x="1105" d="M100 489v21q0 276 179 430 127 100 274 100h16q172 0 281-137l37-57h2q4 170 8 170h90q-8-92-8-234v-1169l-4-4h-92l-4 4v985q0 125-39 186-59 115-185 158-49 14-98 14h-2q-213 0-313-219-41-102-41-227 0-248 155-371 84-57 193-57 129 0 229 96h2v-96q-102-84-252-84-231 0-364 223-63 129-64 268z"/><glyph unicode="r" horiz-adv-x="604" d="M156 983h90l4-199h6q76 221 279 222 10 0 20-2 10 0 20-3v-92q-10 2-22 2h-25q-211 0-258-274-8-39-8-94v-543h-98v688q0 166-8 295z"/><glyph unicode="s" horiz-adv-x="763" d="M90 47l35 82q47-29 98-45 61-23 123-23 229 0 229 187 0 139-206 223-250 94-250 268 0 113 80 187 86 80 223 80 131 0 217-62l-37-80q-35 25-74 39-57 20-122 21-190 0-191-170 0-117 203-201 254-100 254-293 0-127-90-203-91-77-238-77h-4q-141 0-250 67z"/><glyph unicode="t" horiz-adv-x="632" d="M37 903v80h166v180l98 37v-217h281v-80h-281v-639q0-203 143-203 70 0 113 15l12-74q-57-22-131-22h-6q-113 0-168 67-61 70-61 236v620h-166z"/><glyph unicode="u" horiz-adv-x="1087" d="M158 412v571h98v-553q0-172 57-262 63-104 203-105 100 0 182 64 74 53 109 135 18 55 18 109v612h99v-743q0-139 8-240h-92l-6 176h-5q-43-80-120-133-96-66-215-66-55 0-105 17-63 18-110 61-55 51-86 133-35 92-35 224z"/><glyph unicode="v" horiz-adv-x="925" d="M31 983h104l230-610q61-152 96-262h4q16 51 47 127 4 14 12 32l275 713h102l-399-983h-86z"/><glyph unicode="w" horiz-adv-x="1478" d="M47 983h100l166-559 45-162q25-84 39-145h4q16 61 43 145l252 721h92l189-553q59-176 96-313h4q14 63 39 145l225 721h101l-328-983h-84l-186 549q-37 106-58 170-27 88-45 164h-4q-20-80-49-168-23-70-57-170l-195-545h-86z"/><glyph unicode="x" horiz-adv-x="878" d="M23 0l360 502-340 481h111l168-240q29-39 59-84l53-84h4q25 39 58 87l225 321h108l-342-479 355-504h-113l-260 375-37 57h-4q-25-41-57-90l-238-342h-110z"/><glyph unicode="y" horiz-adv-x="901" d="M23 983h104l258-643q39-102 72-211h4l35 100q23 68 41 117l239 637h105l-295-733q-49-125-84-207-41-96-78-166-80-147-170-227-51-43-107-72-20-12-41-20-12-6-24-11l-31 82q92 35 172 109 43 43 82 98 49 70 82 150 12 31 12 43t-12 43z"/><glyph unicode="z" horiz-adv-x="825" d="M33 0v59l530 699 55 71q31 39 58 70v4h-600v80h719l-2-65-582-766q-31-41-53-68v-4h639v-80h-764z"/><glyph unicode="{" horiz-adv-x="542" d="M53 553l2 72q100-2 142 49 31 39 30 112 0 74-18 177l-14 90q-6 49-7 88 0 133 84 202 74 61 205 62h25v-76h-37q-186-2-186-196 0-68 18-164l12-82q6-47 6-82 0-172-131-213v-4q131-39 131-213 0-35-6-82l-12-82q-18-100-18-168 0-195 186-197h37v-75h-25q-131 0-205 63-84 72-84 217 0 39 7 88l14 84q18 102 18 170t-30 109q-43 53-144 51z"/><glyph unicode="|" horiz-adv-x="434" d="M172-512v2048h88v-2048h-88z"/><glyph unicode="}" horiz-adv-x="542" d="M41-154h37q186 2 186 197 0 68-18 168l-13 82q-6 47-6 82 0 174 131 213v4q-131 41-131 213 0 35 6 82l13 82q18 96 18 164 0 195-186 196h-37v76h25q131 0 206-62 82-70 82-202 0-39-6-88l-12-90q-20-96-21-177 0-76 31-112 41-51 143-49l-2-72q-98 2-141-51-31-41-31-109 0-74 21-170l12-84q6-49 6-88 0-145-84-217-74-63-204-63h-25v75z"/><glyph unicode="~" horiz-adv-x="1220" d="M113 453q-8 119 57 194 63 72 162 72 88 0 293-90l77-35q43-18 74-29 78-27 139-26 131 0 129 178h76q6-135-61-205-57-61-152-61-100 0-301 88l-76 32q-41 20-69 31-76 29-133 29-137 0-138-178h-77z"/><glyph unicode="¡" horiz-adv-x="423" d="M135 901q0 92 82 92h2q80 0 80-92 0-90-82-90-86 0-82 90zm21-1307l20 1012h80l20-1012h-120z"/><glyph unicode="¢" d="M127 666q0 205 115 342 111 135 290 159v213h84v-211q74 0 146-20 55-14 94-39l-35-80q-39 25-88 39-66 20-145 21-164 0-269-127-98-119-98-293 0-186 101-299 98-111 253-111 84 0 156 21 29 8 55 18l41 20 27-71q-31-20-90-39-72-25-148-29v-213h-84v213q-176 16-288 135-117 123-117 351z"/><glyph unicode="£" d="M121 0v61q236 131 235 394 0 98-12 182h-217v80h207q0 6-2 12l-2 14q-2 8-2 15-2 8-2 14-6 35-9 64-10 76-10 135 0 174 101 280 96 102 247 103 72 0 131-17 47-12 82-34l-32-76q-70 45-191 45-244 0-244-295 0-74 9-143 6-51 18-117h301v-80h-291l11-143q2-80-13-140-37-158-166-266v-4h650v-84h-799z"/><glyph unicode="¤" d="M72 289l133 133q-78 96-78 246 0 152 84 260l-139 133 63 65 129-141q94 88 234 88h2q147 0 231-88l141 141 62-63-148-135q74-102 74-244 0-160-72-254l140-141-62-64-135 144q-90-90-237-90-145 0-232 81l-131-135zm147 383q0-154 92-240 78-74 181-74 111-2 186 72 90 86 90 252 0 123-68 211-76 100-206 100h-2q-125 0-201-96-72-92-72-225z"/><glyph unicode="¥" d="M53 1331h105l260-491q4-6 6-13l31-61q20-41 37-78h6q20 55 80 170l268 473h102l-377-645h279v-74h-318v-159h318v-74h-318v-379h-94v379h-315v74h315v159h-315v74h280z"/><glyph unicode="¦" horiz-adv-x="434" d="M172 356h88v-716h-88v716zm0 308v716h88v-716h-88z"/><glyph unicode="§" horiz-adv-x="1009" d="M139 727q0 127 137 234-72 53-71 161 0 123 98 199 94 76 236 76 80 0 151-23 61-16 107-47l-41-74q-41 31-94 47-63 23-136 23-94 0-161-49-70-53-70-135 0-90 82-144 33-23 88-45 20-10 51-20l57-21q145-49 213-108 86-76 86-193 0-141-120-246 29-29 47-69 25-51 24-107 0-137-104-219-96-76-246-76-184 0-285 82l43 74q37-33 95-53 72-27 153-27 111 0 180 53 74 55 74 152 0 86-55 139-57 55-215 111-168 63-238 123-86 72-86 182zm88 2q0-63 49-111 57-57 191-104 160-59 229-106 86 74 86 188 0 145-207 219l-124 45q-74 29-119 60-104-78-105-189v-2z"/><glyph unicode="¨" horiz-adv-x="614" d="M57 1264q0 80 78 79 76 0 76-79 0-80-76-80h-4q-74 0-74 80zm346 0q0 80 78 79 76 0 76-79 0-80-76-80h-4q-74 0-74 80z"/><glyph unicode="©" horiz-adv-x="1386" d="M80 696q0 262 178 447 178 184 438 184h2q256 0 435-184 174-184 174-447 0-266-177-448-176-186-434-187-260 0-438 187-178 182-178 448zm82-8q0-238 153-399 152-162 381-162 223-2 377 162 152 164 152 407 0 240-152 404-154 162-377 162h-2q-227 0-379-164-154-164-153-410zm196-4q0 168 117 277 111 104 270 104 158 0 226-53l-21-64q-33 18-73 31-61 18-129 18-152 0-232-90-74-82-74-217 0-133 76-217 84-92 234-92 129 0 211 55l20-59q-49-35-121-49-59-14-131-15-172 0-274 109-98 102-99 262z"/><glyph unicode="ª" horiz-adv-x="667" d="M70 727q0 246 413 229v25q0 18-6 41-6 29-22 51-43 63-140 64-102 0-168-56l-26 62q88 68 211 67 133 0 190-88 45-72 45-200v-220q0-90 11-157h-78l-11 96h-4q-31-43-79-72-59-35-130-34-207 0-206 192zm88 2q0-123 135-123 102 0 164 84 27 37 26 60v137q-59 2-110-2-61-6-105-23-111-39-110-133z"/><glyph unicode="«" horiz-adv-x="802" d="M61 516l291 369h103l-291-369 293-369h-103zm297 0l293 369h101l-291-369 293-369h-103z"/><glyph unicode="¬" horiz-adv-x="1220" d="M82 707v81h1057v-522h-88v441h-969z"/><glyph unicode="­" horiz-adv-x="610" d="M61 520v86h488v-86h-488z"/><glyph unicode="®" horiz-adv-x="808" d="M72 1071q0 137 96 232 98 94 238 94h2q137 0 233-94 94-94 94-232 0-139-94-235-96-94-235-95-139 0-238 95-96 96-96 235zm71 0q0-115 76-192 76-78 189-78 109-2 182 78 74 78 74 190 0 113-74 191-74 80-184 79h-3q-111 0-184-77-76-80-76-191zm140-180v342q57 10 118 10 74 0 107-26 35-25 35-74 0-57-66-80v-4q41-16 55-84l15-57q6-16 12-27h-65q-6 8-15 33-6 18-14 55-12 55-78 55h-41v-143h-63zm63 192h43q88 0 88 54 0 57-82 57-16 0-30-2-8 0-19-2v-107z"/><glyph unicode="¯" horiz-adv-x="614" d="M94 1206v82h430v-82h-430z"/><glyph unicode="°" horiz-adv-x="602" d="M61 1147q0 111 72 184 72 74 176 74h2q113 0 181-76 63-70 63-170 0-113-78-186-74-70-172-70-106 0-176 74-68 70-68 170zm78 0q0-176 168-176 170 0 170 184 0 68-37 119-45 63-133 63h-2q-80 0-125-61-41-55-41-129z"/><glyph unicode="±" horiz-adv-x="1220" d="M84 0v82h1055v-82h-1055zm0 655v82h483v424h88v-424h484v-82h-484v-440h-88v440h-483z"/><glyph unicode="²" horiz-adv-x="585" d="M23 907v51l131 125q268 252 268 394 0 168-176 168-49 0-101-25-18-8-39-21l-30-22-31 55q88 84 221 84 127 0 193-76 53-61 53-143 0-111-82-221-35-51-92-109-45-47-121-114l-72-68v-4h379v-74h-501z"/><glyph unicode="³" horiz-adv-x="571" d="M16 952l31 68q27-18 74-35 57-18 110-18 102 0 158 57 45 45 43 109-2 86-76 131-66 39-163 39h-54v65h56q74 0 131 37 72 43 73 121 0 121-143 121-49 0-100-21-39-14-66-37l-29 64q37 27 84 43 59 20 119 20 115 0 174-59 49-49 49-127 0-131-151-189v-4q184-27 184-202 0-96-71-162-82-76-222-76-131 0-211 55z"/><glyph unicode="´" horiz-adv-x="614" d="M240 1126l182 283h143l-250-283h-75z"/><glyph unicode="µ" horiz-adv-x="1093" d="M164-39v1022h98v-602q0-137 60-219 70-98 206-99 100 0 181 62 70 53 104 137 18 55 18 109v612h99v-743q0-174 98-183l-12-77-31-3q-59 0-96 41-45 47-51 146h-4q-43-74-113-123-88-61-195-61-197 0-264 139v-240l4-104q4-123 19-181h-90q-31 94-31 367z"/><glyph unicode="¶" horiz-adv-x="1009" d="M74 932q-2 188 110 305 66 68 166 102 111 41 262 41 127 0 207-14v-1470h-84v1404h-145v-1404h-84v645h-17q-158 0-276 98-137 111-139 293z"/><glyph unicode="·" horiz-adv-x="356" d="M98 543q0 92 84 92 82 0 82-92 0-90-84-90h-2q-84 0-80 90z"/><glyph unicode="¸" horiz-adv-x="614" d="M123-373l24 70q47-27 111-27 98 0 96 72-2 78-159 92l102 168h76l-74-113q139-18 139-137 0-158-192-158-66 0-123 33z"/><glyph unicode="¹" horiz-adv-x="430" d="M47 1622l168 84h76v-799h-84v717h-4l-137-70z"/><glyph unicode="º" horiz-adv-x="690" d="M31 866q0 156 100 254 90 90 215 90h2q141 0 227-94t87-242q-2-166-105-258-88-82-213-81-135 0-223 90-90 94-90 241zm86 4q0-115 71-190 66-74 156-74 98 0 164 72 66 76 65 194 0 100-53 177-63 90-176 90h-2q-106 0-170-86-55-78-55-183z"/><glyph unicode="»" horiz-adv-x="802" d="M47 885h103l292-369-292-369h-101l291 369zm297 0h102l293-369-293-369h-100l291 369z"/><glyph unicode="¼" horiz-adv-x="1464" d="M98 1260l168 83h76v-798h-84v717h-4l-137-70zm142-1283l790 1377h82l-790-1377h-82zm520 248v51l424 533h76v-514h133v-70h-133v-225h-84v225h-416zm104 70h312v297q0 70 6 115h-4q-16-23-35-52l-31-47z"/><glyph unicode="½" horiz-adv-x="1464" d="M66 1260l167 83h76v-798h-84v717h-4l-137-70zm139-1283l790 1377h82l-790-1377h-82zm641 23v51l131 125q268 252 268 391 0 170-176 170-49 0-100-24-18-8-39-21l-31-22-31 55q88 84 222 84 127 0 192-76 53-61 53-145 0-109-82-219-37-49-94-109-41-43-119-115l-71-67v-4h379v-74h-502z"/><glyph unicode="¾" horiz-adv-x="1464" d="M66 590l30 67q27-18 74-34 57-18 111-19 102 0 157 58 45 45 43 108-2 86-78 131-63 39-163 39h-54v66h56q74 0 131 36 72 43 73 121 0 121-143 121-49 0-100-20-35-16-64-37l-30 61q37 27 81 45 59 20 119 21 115 0 174-60 51-49 52-127 0-131-150-188v-4q184-27 184-203 0-96-71-162-82-76-222-75-131 0-210 55zm256-613l790 1377h82l-791-1377h-81zm462 248v51l424 533h76v-514h133v-70h-133v-225h-84v225h-416zm103 70h313v297q0 70 6 115h-4l-26-41q-4-8-9-13-16-29-28-45z"/><glyph unicode="¿" horiz-adv-x="780" d="M131-145q0 90 47 178 37 74 129 184 137 168 123 332l-4 63h90l8-53q27-182-131-375-158-188-157-321 0-211 223-211 123 0 209 65l37-71q-109-82-265-82-150 0-233 90-76 80-76 201zm258 1046q0 92 84 92h2q80 0 80-92t-84-92q-86 0-82 92z"/><glyph unicode="À" horiz-adv-x="1228" d="M80 4l506 1397h94q10-14 72-197l434-1200-2-2h-99q-6 4-53 145l-125 345h-446l-2 2q27 74 33 81h382v3q-168 477-241 710h-2q-135-401-449-1284v-2h-98l-2 2h-2zm248 1735v2h151l207-238-2-2h-78q-8 0-71 60-174 147-207 178z"/><glyph unicode="Á" horiz-adv-x="1228" d="M78 2l506 1395h94q4 0 43-117l463-1280-2-2h-99q-4 0-79 219l-99 270h-446v2h-2q27 78 32 82h383l-110 326q-78 219-131 387-4-2-56-160l-346-987-49-139h-98zm512 1505l207 236h153v-2q-37-35-276-238h-80z"/><glyph unicode="Â" horiz-adv-x="1226" d="M78 0l506 1397h94q4 0 37-99l469-1298-2-2h-99q-4 0-20 55l-158 434h-446l-2 2q25 70 32 82h383v2q-164 467-241 711h-2q-137-408-449-1284v-2h-98l-2 2h-2zm305 1503l217 230h80l227-230h-112l-152 156h-4l-154-156h-102z"/><glyph unicode="Ã" horiz-adv-x="1226" d="M74 2l506 1395h94q4 0 45-121l461-1276-2-2h-99q-4 0-43 121l-135 368h-446l-2 5q29 80 32 79h383l-166 484q-47 137-75 231h-2q-96-295-389-1118l-60-170h-98zm319 1518q0 129 90 172 14 8 41 8h8q47 0 138-58 51-25 88-24 29 0 41 24 8 16 14 56h66l2-4v-8q0-121-86-154-20-4-39-4-59 0-170 65-39 16-58 17h-10q-43 0-55-92h-66z"/><glyph unicode="Ä" horiz-adv-x="1230" d="M76 4l506 1395h94q4 0 35-90l471-1307-2-2h-99q-4 6-55 147l-123 342h-446v3h-2q29 82 32 81h385q-244 696-243 713-4 0-19-53-203-588-432-1233h-98zm289 1608v12q0 51 59 78h25q47 0 69-57l4-29q0-53-47-78-16-6-35-6-55 0-73 63zm362 8q0 59 64 82h18q55 0 74-62l2-16v-12q0-59-60-78l-20-2q-68 0-78 88z"/><glyph unicode="Å" horiz-adv-x="1228" d="M80 0l506 1395h94q4 0 45-121l461-1276-2-2h-99q-4 0-79 219l-99 270h-446v2h-2q27 78 33 82h382l-120 355q-96 274-121 360h-2q-125-379-449-1288h-98zm350 1653q0 115 117 168 36 14 69 14h15q125 0 176-125 8-31 8-59 0-104-106-158-39-16-86-16-106 0-166 86-27 43-27 90zm70-6q0-59 61-99 25-10 43-10 80 0 105 92l4 27q0 80-78 115l-31 4q-72 0-100-82-4-21-4-37v-10z"/><glyph unicode="Æ" horiz-adv-x="1615" d="M0-2q660 1389 668 1397h753l2-2v-78l-2-2h-604l66-541h514l2-2v-78l-2-2h-504l76-610h495l4-4v-76l-4-4h-579q-6 0-13 84l-61 479h-330l39 82h283q-35 281-76 680h-10q-111-246-594-1280-20-45-23-45h-96l-2 2h-2z"/><glyph unicode="Ç" horiz-adv-x="1183" d="M76 682q0 313 186 514 193 205 514 205 115 0 209-23 37-8 68-18 12-4 24-10l19-9-31-81q-123 59-289 59-279 0-438-170-160-172-160-469 0-285 154-449 154-168 428-168 182 0 313 64l29-78q-57-29-148-47-106-23-233-22l-59-91q141-18 141-143 0-152-191-152-70 0-127 31l25 72q49-27 111-27 94 0 94 72 0 76-158 94l88 148q-246 27-397 192-172 186-172 506z"/><glyph unicode="È" horiz-adv-x="954" d="M166 0v1380h682v-82h-584v-530h551v-82h-551v-604h617v-82h-715zm90 1686h150l200-232h-82z"/><glyph unicode="É" horiz-adv-x="954" d="M166 0v1380h682v-82h-584v-530h551v-82h-551v-604h617v-82h-715zm270 1454l201 232h149l-268-232h-82z"/><glyph unicode="Ê" horiz-adv-x="954" d="M166 0v1380h682v-82h-584v-530h551v-82h-551v-604h617v-82h-715zm82 1454l213 223h78l219-223h-109l-147 152h-4l-148-152h-102z"/><glyph unicode="Ë" horiz-adv-x="954" d="M166 0v1380h682v-82h-584v-530h551v-82h-551v-604h617v-82h-715zm86 1569q0 82 76 82t75-82q0-82-75-82h-2q-74 0-74 82zm352 0q0 82 76 82t76-82-76-82h-2q-74 0-74 82z"/><glyph unicode="Ì" horiz-adv-x="432" d="M-51 1686h149l201-232h-82zm217-1686v1380h98v-1380h-98z"/><glyph unicode="Í" horiz-adv-x="432" d="M133 1454l201 232h149l-268-232h-82zm33-1454v1380h98v-1380h-98z"/><glyph unicode="Î" horiz-adv-x="432" d="M-37 1454l213 223h78l219-223h-108l-148 152h-4l-147-152h-103zm203-1454v1380h98v-1380h-98z"/><glyph unicode="Ï" horiz-adv-x="432" d="M-35 1569q0 82 76 82t76-82-76-82h-2q-74 0-74 82zm201-1569v1380h98v-1380h-98zm151 1569q0 82 76 82t76-82-76-82h-2q-74 0-74 82z"/><glyph unicode="Ð" horiz-adv-x="1333" d="M-10 659v80h182v627q178 31 354 31 379 0 557-189 172-178 172-485 0-326-180-524-190-211-596-211-90 0-155 2-82 4-152 10v659h-182zm280-579q70-10 224-10 326 0 497 174 164 170 164 481 4 274-149 426-164 164-486 164-141 0-250-23v-553h428v-80h-428v-579z"/><glyph unicode="Ñ" horiz-adv-x="1306" d="M168 0v1380h92l537-815q90-139 147-231 66-109 113-203l4 2q-10 129-14 268 0 63-3 140v839h95v-1380h-90l-603 920-69 112q-76 121-123 217l-4-2q8-121 10-252 2-113 2-297v-698h-94zm264 1466q-4 176 129 176 41 0 117-43 66-35 102-34 51 0 56 75h67q0-164-123-163-45 0-121 41l-55 26q-27 12-47 12-47 0-57-90h-68z"/><glyph unicode="Ò" horiz-adv-x="1433" d="M119 676q0-322 174-518 170-193 438-193 271 0 447 197 184 205 184 543 0 303-160 497-154 188-397 209v-84q209-27 336-215 117-176 116-412 0-268-127-448-141-203-393-203-246 0-389 205-125 180-125 428 0 262 125 442 133 190 359 205v84q-248-14-410-196-178-203-178-541zm346 1087h153l207-237h-82q-8 0-71 57-172 147-207 180z"/><glyph unicode="Ó" horiz-adv-x="1433" d="M119 676q0-322 174-518 170-193 438-193 271 0 447 197 184 205 184 543 0 303-160 497-154 188-397 209v-84q209-27 336-215 117-176 116-412 0-268-127-448-141-203-393-203-246 0-389 205-125 180-125 428 0 262 125 442 133 190 359 205v84q-248-14-410-196-178-203-178-541zm561 803q180 212 207 237h151l-274-237h-84z"/><glyph unicode="Ô" horiz-adv-x="1431" d="M119 676q0-322 174-518 170-193 438-193 271 0 447 197 184 205 184 543 0 303-160 497-154 188-397 209v-84q209-27 336-215 117-176 116-412 0-268-127-448-141-203-393-203-246 0-389 205-125 180-125 428 0 262 125 442 133 190 359 205v84q-248-14-410-196-178-203-178-541zm360 823v2l217 230h82l226-230v-2h-111l-154 156h-2l-155-156h-103z"/><glyph unicode="Õ" horiz-adv-x="1437" d="M119 676q0-322 174-518 170-193 438-193 271 0 447 197 184 205 184 543 0 303-160 497-154 188-397 209v-84q209-27 336-215 117-176 116-412 0-268-127-448-141-203-393-203-246 0-389 205-125 180-125 428 0 262 125 442 133 190 359 205v84q-248-14-410-196-178-203-178-541zm381 846q0 127 90 170 21 6 41 6h8q45 0 139-58 49-23 84-22 35 0 47 37 8 41 11 41h63l4-2v-6q0-121-84-156-20-6-41-6h-2q-57 0-172 67-39 14-53 15h-12q-39 0-50-76-2-16-6-16h-65q-2 0-2 6z"/><glyph unicode="Ö" horiz-adv-x="1433" d="M119 676q0-322 174-518 170-193 438-193 271 0 447 197 184 205 184 543 0 303-160 497-154 188-397 209v-84q209-27 336-215 117-176 116-412 0-268-127-448-141-203-393-203-246 0-389 205-125 180-125 428 0 262 125 442 133 190 359 205v84q-248-14-410-196-178-203-178-541zm340 936v2q0 59 63 82h19q51 0 73-62v-22q0-61-51-82l-26-4q-51 0-72 49-6 14-6 37zm362 0q0 55 56 82l20 2h10q49 0 70-60l4-24q0-63-59-84l-23-2q-51 0-72 55-4 8-6 31z"/><glyph unicode="×" horiz-adv-x="1220" d="M82 61l467 478-467 477 61 61 467-475 467 475 62-61-467-477 467-478-62-61-467 475-467-475z"/><glyph unicode="Ø" horiz-adv-x="1433" d="M88 698v27q0 354 234 573 115 100 276 136 49 8 66 8l2-2v-78q0-4-56-10-127-29-213-107-94-96-123-164-82-166-81-342v-34q0-227 131-429l710 959q-119 98-231 117-41 6-41 10v78l2 2v2q70-2 182-45 39-14 109-60l37-26 125 166q63-41 65-45v-2q-133-176-133-181 178-205 178-503v-21q0-422-291-631-154-96-321-96h-10q-162 0-302 82v2l52 68q106-68 252-68 291 0 440 293 76 164 76 336v35q0 229-131 421h-2q-686-924-900-1204h-2l-59 47 135 185q-176 213-176 501z"/><glyph unicode="Ù" horiz-adv-x="1282" d="M166 541v839h98v-833q0-250 107-375 96-113 260-113 180 0 280 117 106 125 107 371v833h98v-825q0-299-147-449-127-129-342-129-203 0-322 123-139 143-139 441zm221 1145h150l200-232h-82z"/><glyph unicode="Ú" horiz-adv-x="1282" d="M166 541v839h98v-833q0-250 107-375 96-113 260-113 180 0 280 117 106 125 107 371v833h98v-825q0-299-147-449-127-129-342-129-203 0-322 123-139 143-139 441zm407 913l201 232h150l-269-232h-82z"/><glyph unicode="Û" horiz-adv-x="1282" d="M166 541v839h98v-833q0-250 107-375 96-113 260-113 180 0 280 117 106 125 107 371v833h98v-825q0-299-147-449-127-129-342-129-203 0-322 123-139 143-139 441zm229 913l213 223h78l219-223h-108l-148 152h-4l-147-152h-103z"/><glyph unicode="Ü" horiz-adv-x="1282" d="M166 541v839h98v-833q0-250 107-375 96-113 260-113 180 0 280 117 106 125 107 371v833h98v-825q0-299-147-449-127-129-342-129-203 0-322 123-139 143-139 441zm223 1028q0 82 76 82t76-82-76-82h-2q-74 0-74 82zm352 0q0 82 76 82t76-82-76-82h-2q-74 0-74 82z"/><glyph unicode="Ý" horiz-adv-x="1030" d="M31 1380h108l310-563q43-80 75-145h4q27 59 72 143 16 27 43 76l281 489h108l-465-784v-596h-98v598zm426 58l200 231h150l-268-231h-82z"/><glyph unicode="Þ" horiz-adv-x="1026" d="M166 0v1380h96v-282q98 18 213 18 238 0 359-115 100-100 100-245 0-195-139-305-137-111-367-111-104 0-166 12v-352h-96zm96 436q37-8 86-12 35-2 84-2 403 0 404 317 0 150-103 226-94 70-262 69-131 0-209-20v-578z"/><glyph unicode="ß" horiz-adv-x="1056" d="M166 0v952q0 166 39 277 33 98 100 160 100 88 256 88 131 0 219-80 98-90 99-246 0-51-17-100-10-39-28-68-164-66-164-178 0-57 35-109 14-20 38-47l115-114q33-37 53-70 51-80 52-176 0-137-93-223-94-88-245-89-123 0-215 50l26 82q102-49 193-50 113 0 178 64 61 59 61 149 0 135-135 254-82 74-115 125-43 66-43 137 0 158 191 250 18 41 18 99 0 258-241 258-279 0-279-447v-948h-98z"/><glyph unicode="à" horiz-adv-x="925" d="M84 256v14q0 242 301 326 133 31 207 31l2-2v-78q0-4-6-4-160 0-287-66-113-72-113-188v-19q0-125 109-178 41-18 78-18h24q150 0 248 129 45 70 45 137v301q0 244-153 293-47 12-86 12h-29q-125 0-238-74l-32 74q140 86 292 86 231 0 310-184 37-84 37-207v-395q0-145 14-234l-2-2h-86q-8 4-8 53l-11 93h-2q-125-168-323-168-154 0-238 110-53 74-53 158zm131 1174l2 2h143l187-289-2-2h-74z"/><glyph unicode="á" horiz-adv-x="917" d="M94 244v14q0 240 297 326 135 31 211 30h2v-77q0-4-92-11-133-14-227-77-86-72-86-168v-23q0-125 110-178 39-18 86-19h2q201 0 289 183 16 41 16 84v301q0 193-90 258-61 49-163 49-137 0-252-74h-2l-31 72q135 86 295 86 227 0 307-182 37-88 37-207v-393q0-154 14-236l-2-2h-88q-4 0-8 68l-8 75h-6q0-14-78-86-111-80-232-80h-16q-186 0-264 164-20 51-21 103zm301 913l187 285v2h147v-2l-256-287h-74z"/><glyph unicode="â" horiz-adv-x="915" d="M90 246v14q0 242 301 326 133 31 207 30l2-2v-77q0-4-6-5-160 0-287-65-113-72-112-188v-19q0-125 108-178 41-18 78-19h25q150 0 247 130 45 70 45 137v301q0 244-153 293-47 12-86 12h-29q-125 0-237-74l-33 74q141 86 293 86 231 0 309-184 37-84 37-207v-395q0-145 14-234l-2-2h-86q-8 4-8 53l-10 92h-2q-125-168-324-168-154 0-238 111-53 74-53 158zm160 917l190 287h72l197-287v-4h-99q-8 10-131 209h-4q-125-201-133-209h-90z"/><glyph unicode="ã" horiz-adv-x="925" d="M94 244v14q0 242 301 326 133 31 207 30l2-2v-77q0-4-6-5-160 0-287-65-113-72-112-189v-18q0-125 108-178 41-18 78-19h25q150 0 247 129 45 70 45 138v301q0 244-153 293-47 12-86 12h-29q-125 0-237-74l-33 74q141 86 293 86 231 0 309-184 37-84 37-207v-396q0-145 14-233l-2-2h-86q-8 4-8 53l-10 92h-2q-125-168-324-168-154 0-238 111-53 74-53 158zm160 962q0 127 76 170 23 12 43 13h16q37 0 164-70 23-10 41-10h4q47 0 55 71 0 15 2 15h66l2-4v-7q0-137-92-163l-33-2q-51 0-162 65-37 14-53 14-41 0-53-71 0-25-4-25h-68z"/><glyph unicode="ä" horiz-adv-x="925" d="M100 248v16q0 186 197 287 115 47 152 47 96 18 159 18h2v-77l-4-4q-147 0-280-62-121-72-121-192v-19q0-125 106-178 45-20 92-21 174 0 267 144 39 59 39 123v299q0 244-148 293-47 16-102 16h-6q-141 0-250-74-4 0-33 72 133 86 287 86h14q246 0 315-223 23-76 23-166v-393q0-152 14-236l-2-2h-86q-6 0-8 51l-10 92h-6q-57-82-119-110-86-55-201-55-205 0-278 184-12 47-13 84zm138 1048q0 59 67 82h19q51 0 71-65l2-17q-10-82-78-82h-10q-51 0-69 64zm354 0q0 55 61 80l17 2h8q49 0 72-63l2-21q0-63-68-80h-16q-63 0-76 82z"/><glyph unicode="å" horiz-adv-x="929" d="M80 248q0 367 600 360v27q0 47-6 86-10 55-33 96-59 109-213 107-145 0-248-74l-30 72q127 84 288 84 193 0 277-129 35-51 51-125 12-59 12-134v-385q0-68 2-116 4-66 13-117h-91l-14 141h-4q-43-66-117-110-90-53-198-54-139 0-219 86-70 76-70 185zm102 16q0-100 60-155 53-49 137-50 115 0 194 62 68 53 97 135 10 27 10 59v211q-92 2-168-6-94-8-162-35-168-63-168-221zm88 1014q0 186 191 186h2q184 0 184-186 0-76-55-129-55-51-131-51-190 0-191 180zm80 0q0-119 109-119 113 0 112 123 0 121-112 121h-2q-106 0-107-125z"/><glyph unicode="æ" horiz-adv-x="1540" d="M96 238v16q0 195 221 293 145 51 230 51l59 4 2-2v-76q0-4-92-8-86-14-139-33-178-66-178-229 0-135 131-184 37-10 71-11 195 0 281 179 23 51 23 122v275q0 205-148 278-53 20-113 21-133 0-245-72-4 0-33 72 139 86 278 86h17q223 0 297-199 10-43 14-43 23 66 94 144 111 98 252 98h15q233 0 327-250 35-96 35-197 0-51-6-51h-598q-4 0-4 29v22q0 31 4 31h500v14q0 137-95 244-74 74-178 74h-2q-207 0-295-231-31-98-30-183 2-84 30-211 43-135 146-198 86-49 182-50 156 0 264 60l29-80q-127-66-305-66-213 0-332 162-43 74-43 88h-4q-41-119-150-190-98-59-221-60-199 0-272 166-18 49-19 95z"/><glyph unicode="ç" horiz-adv-x="913" d="M84 481q0 233 143 379 141 145 363 146 84 0 160-21 63-18 98-41l-35-80q-43 25-94 39-63 18-139 19-188 0-297-129-100-119-101-304 0-193 109-309 109-117 280-117 76 0 146 21 27 6 55 18l23 9q10 4 20 10l29-78q-18-10-41-18-31-12-62-21-86-23-174-24l-59-91q139-16 139-137 0-158-192-158-66 0-123 33l24 70q45-27 109-27 98 0 98 72-2 76-160 94l91 148q-184 18-297 155t-113 342z"/><glyph unicode="è" horiz-adv-x="1026" d="M90 489v21q0 270 170 430 123 100 277 100 279 0 368-288 23-88 23-172-2-49-8-50h-629l-4 2v9q0 68 10 67h526v2q0 229-164 320-63 27-120 26h-23q-166 0-266-172-61-125-62-260v-26q0-217 152-344 98-68 229-68 160 0 275 55l24-78q-125-63-297-63h-30q-221 0-363 184-88 137-88 305zm219 967h146l186-287v-2h-76q-18 17-256 289z"/><glyph unicode="é" horiz-adv-x="1009" d="M90 492v24q0 281 186 440 116 86 261 86h8q250 0 346-247 37-102 37-209-2-53-8-54h-629l-4 3v10q2 68 10 67h526v2q0 227-161 318-63 27-138 26-205 0-299-223-37-104-37-205v-30q0-213 148-340 100-70 219-70h31q139 0 256 53h2l24-75q-123-66-313-66-272 0-403 229-61 121-62 261zm363 673l186 289h143l2-4-256-287h-73v2h-2z"/><glyph unicode="ê" horiz-adv-x="1024" d="M86 489v21q0 242 143 401 126 125 308 125 281 0 366-299 20-86 21-159-2-51-9-52h-628l-4 2v13q0 57 10 65h526v2q0 217-149 312-70 33-148 32-188 0-284-190-53-115-54-238v-35q0-188 123-315 104-92 256-92 156 0 277 55l24-78q-125-63-315-63-289 0-418 260-45 113-45 233zm221 666v2l191 287h71q18-20 199-287l-2-2h-96q-8 6-131 207h-4l-134-207h-94z"/><glyph unicode="ë" horiz-adv-x="1024" d="M98 481v25q0 272 181 434 119 92 262 92h8q279 0 364-295 23-84 23-162-2-53-8-53h-629l-4 2v11q2 68 10 67h526v2q0 221-153 311-61 33-148 33-182 0-280-188-53-119-53-240v-31q0-213 147-339 100-70 219-70h31q141 0 256 53h2l25-76q-121-66-316-65-242 0-377 188-86 133-86 301zm205 811v4q0 53 57 78 7 2 19 2h10q51 0 72-67v-19q0-55-60-76l-16-2h-10q-49 0-70 64zm354 4q0 57 68 80h16q51 0 74-65v-19q-10-80-76-80h-6q-49 0-69 50-6 16-7 34z"/><glyph unicode="ì" horiz-adv-x="428" d="M-55 1409h143l182-283h-75zm221-1409v983h98v-983h-98z"/><glyph unicode="í" horiz-adv-x="428" d="M129 1126l182 283h144l-250-283h-76zm37-1126v983h98v-983h-98z"/><glyph unicode="î" horiz-adv-x="428" d="M-10 1126l186 283h72l192-283h-98l-127 203h-4l-129-203h-92zm176-1126v983h98v-983h-98z"/><glyph unicode="ï" horiz-adv-x="428" d="M-35 1264q0 80 78 79 76 0 76-79 0-80-76-80h-4q-74 0-74 80zm201-1264v983h98v-983h-98zm145 1264q0 80 78 79 76 0 76-79 0-80-76-80h-4q-74 0-74 80z"/><glyph unicode="ð" horiz-adv-x="1067" d="M84 481q0 238 139 387 129 137 305 138 82 0 144-23 74-29 141-96l4 6q-96 174-278 324l-291-142-29 68 252 123q-90 72-227 137l45 74q152-78 266-166l250 125 33-70-220-109q178-147 269-337 90-180 90-408 0-264-146-410-125-125-309-125-193 0-313 138-125 139-125 366zm98 4q0-180 101-303 98-123 239-123h2q156 0 254 125 98 121 99 314 0 211-84 311-45 51-103 80-72 35-160 35-170 0-266-148-82-125-82-291z"/><glyph unicode="ñ" horiz-adv-x="1097" d="M158 983h92l6-176h4q96 199 338 199 47 0 94-13 63-18 113-57 63-49 96-125 41-92 41-221v-590h-98v582q0 150-60 239-72 102-213 103-227 0-295-228-12-45-12-86v-610h-98v748q0 131-8 235zm164 188q-4 180 122 181 25 0 58-13l65-32q57-33 86-33 51 0 58 84h67q0-172-123-172-41 0-114 41-70 37-95 37-49 0-55-93h-69z"/><glyph unicode="ò" horiz-adv-x="1128" d="M74 477q0-225 127-366 127-139 329-140 195 0 326 135 141 145 141 388 0 215-118 356-115 135-295 149v-84q137-18 225-137 90-121 90-291 0-174-88-297-100-137-279-137-178 0-276 146-84 123-84 282 0 172 90 293 88 119 225 141v82q-170-20-282-143-131-143-131-377zm233 967v2h144q4-2 163-252 23-33 23-39h-76q-45 47-254 289z"/><glyph unicode="ó" horiz-adv-x="1124" d="M74 477q0-225 127-366 127-139 329-140 195 0 326 135 141 145 141 388 0 215-118 356-115 135-295 149v-84q137-18 225-137 90-121 90-291 0-174-88-297-100-137-279-137-178 0-276 146-84 123-84 282 0 172 90 293 88 119 225 141v82q-170-20-282-143-131-143-131-377zm383 676l184 285 2 2h145v-2l-256-289h-73z"/><glyph unicode="ô" horiz-adv-x="1116" d="M74 477q0-225 127-366 127-139 329-140 195 0 326 135 141 145 141 388 0 215-118 356-115 135-295 149v-84q137-18 225-137 90-121 90-291 0-174-88-297-100-137-279-137-178 0-276 146-84 123-84 282 0 172 90 293 88 119 225 141v82q-170-20-282-143-131-143-131-377zm233 688v4q187 283 193 287h69q6-4 199-289l-2-2h-96q-8 8-101 156l-32 53-136-209h-94z"/><glyph unicode="õ" horiz-adv-x="1126" d="M74 477q0-225 127-366 127-139 329-140 195 0 326 135 141 145 141 388 0 215-118 356-115 135-295 149v-84q137-18 225-137 90-121 90-291 0-174-88-297-100-137-279-137-178 0-276 146-84 123-84 282 0 172 90 293 88 119 225 141v82q-170-20-282-143-131-143-131-377zm241 727v17q4 117 78 155 20 8 41 8h10q43 0 164-65 29-12 43-12h11q41 0 51 69 0 17 4 17h63l2-2h2q0-125-69-164-31-12-58-13-49 0-163 68-35 12-52 12-39 0-51-65-4-29-6-29h-66z"/><glyph unicode="ö" horiz-adv-x="1126" d="M74 477q0-225 127-366 127-139 329-140 195 0 326 135 141 145 141 388 0 215-118 356-115 135-295 149v-84q137-18 225-137 90-121 90-291 0-174-88-297-100-137-279-137-178 0-276 146-84 123-84 282 0 172 90 293 88 119 225 141v82q-170-20-282-143-131-143-131-377zm211 797v10q0 57 61 80l16 2h7q51 0 71-63l2-21q0-61-67-80h-17q-57 0-73 72zm354 4v12q0 49 61 74l15 2h6q57 0 76-70v-14q0-59-62-78l-14-2h-8q-51 0-72 60z"/><glyph unicode="÷" horiz-adv-x="1220" d="M82 508v82h1057v-82h-1057zm444-320q0 92 84 93 84 0 84-93 0-90-84-90h-2q-86 0-82 90zm0 719q0 92 84 92t84-92q0-90-84-90h-2q-86 0-82 90z"/><glyph unicode="ø" horiz-adv-x="1126" d="M92 500v18q0 287 211 443 102 66 205 73h2v-80q0-2-53-12-102-29-172-121-92-133-92-307 0-180 96-305h2l483 672q-59 49-129 63-37 6-37 10v80h2v2q109-14 168-51l47-27q76 107 82 111l62-39v-4l-82-119v-2q139-156 139-370v-9q0-330-250-475-104-55-217-55-92 0-178 33v4q47 68 51 67 53-20 121-20 190 0 307 182 66 121 66 260 0 160-95 299h-4l-575-798q-41-57-45-60l-55 49v4l79 115v2q-139 152-139 367z"/><glyph unicode="ù" horiz-adv-x="1087" d="M158 412v571h98v-553q0-172 57-262 63-104 203-105 100 0 182 64 74 53 109 135 18 55 18 109v612h99v-743q0-139 8-240h-92l-6 176h-5q-43-80-120-133-96-66-215-66-55 0-105 17-63 18-110 61-55 51-86 133-35 92-35 224zm141 997h143l183-283h-76z"/><glyph unicode="ú" horiz-adv-x="1087" d="M158 412v571h98v-553q0-172 57-262 63-104 203-105 100 0 182 64 74 53 109 135 18 55 18 109v612h99v-743q0-139 8-240h-92l-6 176h-5q-43-80-120-133-96-66-215-66-55 0-105 17-63 18-110 61-55 51-86 133-35 92-35 224zm325 714l183 283h143l-250-283h-76z"/><glyph unicode="û" horiz-adv-x="1087" d="M158 412v571h98v-553q0-172 57-262 63-104 203-105 100 0 182 64 74 53 109 135 18 55 18 109v612h99v-743q0-139 8-240h-92l-6 176h-5q-43-80-120-133-96-66-215-66-55 0-105 17-63 18-110 61-55 51-86 133-35 92-35 224zm161 714l187 283h72l192-283h-98l-127 203h-4l-129-203h-93z"/><glyph unicode="ü" horiz-adv-x="1087" d="M158 412v571h98v-553q0-172 57-262 63-104 203-105 100 0 182 64 74 53 109 135 18 55 18 109v612h99v-743q0-139 8-240h-92l-6 176h-5q-43-80-120-133-96-66-215-66-55 0-105 17-63 18-110 61-55 51-86 133-35 92-35 224zm143 852q0 80 78 79 76 0 76-79 0-80-76-80h-4q-74 0-74 80zm346 0q0 80 78 79 76 0 76-79 0-80-76-80h-4q-74 0-74 80z"/><glyph unicode="ý" horiz-adv-x="901" d="M23 983h104l258-643q39-102 72-211h4l35 100q23 68 41 117l239 637h105l-295-733q-49-125-84-207-41-96-78-166-80-147-170-227-51-43-107-72-20-12-41-20-12-6-24-11l-31 82q92 35 172 109 43 43 82 98 49 70 82 150 12 31 12 43t-12 43zm364 143l182 283h144l-250-283h-76z"/><glyph unicode="þ" horiz-adv-x="1130" d="M164-406v1768h98v-555h4q117 199 361 199 184 0 303-140 117-139 117-358 0-254-138-399-125-131-313-132-219 0-330 181h-4v-564h-98zm98 787q0-47 12-88 72-233 328-234 156 0 250 121 96 121 96 326 0 174-90 293-98 125-256 125-242 0-321-244-18-59-19-111v-188z"/><glyph unicode="ÿ" horiz-adv-x="901" d="M23 983h104l258-643q39-102 72-211h4l35 100q23 68 41 117l239 637h105l-295-733q-49-125-84-207-41-96-78-166-80-147-170-227-51-43-107-72-20-12-41-20-12-6-24-11l-31 82q92 35 172 109 43 43 82 98 49 70 82 150 12 31 12 43t-12 43zm202 281q0 80 78 79 76 0 76-79 0-80-76-80h-4q-74 0-74 80zm346 0q0 80 78 79 76 0 76-79 0-80-76-80h-4q-74 0-74 80z"/><glyph unicode="Œ" horiz-adv-x="1843" d="M90 678v22q0 348 219 557 187 164 449 164h22q76 0 281-22h643l4-4v-78l-4-2h-588v-539h553l4-4v-78l-4-2h-553v-610h621l4-2v-76l-4-4h-719l-4 4v1301q-109 33-248 32h-8q-313 0-469-256-94-166-94-366v-37q0-266 159-451 164-166 404-166h33q55 0 122 9l2-2v-78q-4-8-161-15-358 0-553 293-111 184-111 410z"/><glyph unicode="œ" horiz-adv-x="1742" d="M86 487v17q0 258 174 418 78 66 186 92l29 6 2-2v-80q0-4-43-12-113-41-178-148-70-129-70-280 0-211 142-348 98-84 213-84 190 0 297 186 57 115 57 252 0 219-137 358-57 55-166 76-16 0-17 4v78l3 2v2l4-2q92 0 204-68 102-70 154-204h2q33 86 105 163 115 111 264 111h18q207 0 309-190 61-121 62-244v-47q0-31-6-31h-604l-5 2v6q0 74 9 74h503q0 197-120 295-68 51-166 51-215 0-299-248-23-74-23-164v-8q0-332 225-426 76-27 144-26 131 0 262 59l29-78q-125-68-306-67-289 0-405 268 0 6-4 6-2 0-16-39-23-55-95-129-123-106-288-106-182 0-312 129-137 150-137 376z"/><glyph unicode="Ÿ" horiz-adv-x="1030" d="M31 1380h108l310-563q43-80 75-145h4q27 59 72 143 16 27 43 76l281 489h108l-465-784v-596h-98v598zm254 168q0 82 75 82 76 0 76-82t-76-82h-2q-74 0-73 82zm352 0q0 82 76 82t75-82q0-82-75-82h-2q-74 0-74 82z"/><glyph unicode="ˆ" horiz-adv-x="614" d="M82 1126l186 283h72l192-283h-98l-127 203h-4l-129-203h-92z"/><glyph unicode="˜" horiz-adv-x="614" d="M84 1171q-4 180 123 181 25 0 55-13l68-32q57-33 86-33 51 0 57 84h68q0-172-123-172-41 0-115 41-72 37-94 37-49 0-55-93h-70z"/><glyph horiz-adv-x="917"/><glyph horiz-adv-x="1835"/><glyph horiz-adv-x="917"/><glyph horiz-adv-x="1835"/><glyph horiz-adv-x="611"/><glyph horiz-adv-x="458"/><glyph horiz-adv-x="305"/><glyph horiz-adv-x="305"/><glyph horiz-adv-x="229"/><glyph horiz-adv-x="367"/><glyph horiz-adv-x="101"/><glyph unicode="‐" horiz-adv-x="610" d="M61 520v86h488v-86h-488z"/><glyph unicode="‑" horiz-adv-x="610" d="M61 520v86h488v-86h-488z"/><glyph unicode="‒" horiz-adv-x="610" d="M61 520v86h488v-86h-488z"/><glyph unicode="–" horiz-adv-x="1024" d="M61 481v80h902v-80h-902z"/><glyph unicode="—" horiz-adv-x="2048" d="M61 481v80h1926v-80h-1926z"/><glyph unicode="‘" horiz-adv-x="356" d="M82 963q70 291 158 444l69 10q-70-184-106-434z"/><glyph unicode="’" horiz-adv-x="356" d="M82 963q70 184 106 434l121 20q-70-291-157-444z"/><glyph unicode="‚" horiz-adv-x="356" d="M47-258q70 184 107 434l120 21q-70-291-157-445z"/><glyph unicode="“" horiz-adv-x="600" d="M82 963q70 291 158 444l69 10q-70-184-106-434zm244 0q70 291 157 444l70 10q-70-184-107-434z"/><glyph unicode="”" horiz-adv-x="600" d="M82 963q70 184 106 434l121 20q-70-291-157-444zm244 0q70 184 106 434l121 20q-70-291-158-444z"/><glyph unicode="„" horiz-adv-x="600" d="M47-258q70 184 107 434l120 21q-70-291-157-445zm244 0q70 184 106 434l121 21q-70-291-158-445z"/><glyph unicode="•" horiz-adv-x="505" d="M74 537q-2 76 51 129 55 53 131 53t129-53q55-53 55-129t-55-129q-53-53-129-54h-2q-76 0-127 54-53 53-53 129z"/><glyph unicode="…" horiz-adv-x="2048" d="M264 70q0 92 84 92 82 0 82-92t-84-93h-2q-84 0-80 93zm682 0q0 92 84 92 82 0 82-92t-84-93h-2q-84 0-80 93zm682 0q0 92 84 92 82 0 82-92t-84-93h-2q-84 0-80 93z"/><glyph horiz-adv-x="367"/><glyph unicode="‹" horiz-adv-x="503" d="M61 516l293 369h101l-291-369 293-369h-103z"/><glyph unicode="›" horiz-adv-x="503" d="M47 885h103l292-369-292-369h-101l291 369z"/><glyph horiz-adv-x="458"/><glyph unicode="€" d="M27 532v76h118v29q0 57 7 108h-125v76h135q37 242 184 387 152 145 363 146 82 0 153-23 53-16 99-45l-31-76q-90 61-230 62-168 0-284-111-121-115-156-340h608v-76h-620l-4-137h622v-76h-618q25-221 139-344 121-127 307-127 78 0 156 27 29 10 59 25 23 10 45 24l25-71q-51-39-121-62-82-27-176-27-221 0-365 150-139 145-167 405h-123z"/><glyph unicode="™" horiz-adv-x="1228" d="M68 1317v63h450v-63h-188v-494h-74v494h-188zm479-494l45 557h108l131-356q10-25 21-59l18-58h4l37 113 131 360h109l49-557h-78l-26 379-6 119h-5q-8-20-22-64l-10-34-142-392h-84l-172 490h-4l-4-119-26-379h-74z"/><glyph unicode="◼" horiz-adv-x="983" d="M0 0v983h983v-983h-983z"/><glyph unicode="ﬁ" horiz-adv-x="991" d="M31 903v80h141v64q0 197 92 309 98 121 285 121 143 0 225-68l-45-76q-80 61-199 62-143 0-206-107-53-86-54-248v-57h555v-983h-98v903h-457v-903h-98v903h-141z"/><glyph unicode="ﬂ" horiz-adv-x="991" d="M31 903v80h141v43q0 233 133 358 102 92 279 93 139 0 241-54v-1423h-98v1364q-57 31-166 31-156 0-229-107-61-90-62-248v-57h262v-80h-262v-903h-98v903h-141z"/><glyph unicode="ﬃ" horiz-adv-x="1562" d="M31 903v80h141v47q0 217 113 338 88 88 225 88 45 0 100-16 43-14 74-33l-37-78q-74 45-145 45-98 0-152-63-43-45-63-127-16-70-17-160v-41h473v64q0 197 93 309 98 121 286 121 143 0 226-68l-45-76q-80 61-199 62-143 0-209-107-53-86-53-248v-57h557v-983h-99v903h-458v-903h-99v903h-473v-903h-98v903h-141z"/><glyph unicode="ﬄ" horiz-adv-x="1562" d="M31 903v80h141v29q0 109 23 190 27 102 88 166 88 88 229 88 47 0 102-14 39-12 70-29l-39-78q-66 39-141 39-96 0-154-63-43-45-61-123-18-70-19-162v-43h473v43q0 233 134 358 104 92 278 93 141 0 244-54v-1423h-99v1364q-57 31-165 31-158 0-232-107-61-90-61-248v-57h262v-80h-262v-903h-99v903h-473v-903h-98v903h-141z"/></font>
</defs>
</svg>
